<?xml version="1.0" encoding="utf-8"?>
<!-- Generator: Adobe Illustrator 27.2.0, SVG Export Plug-In . SVG Version: 6.00 Build 0)  -->
<svg version="1.1" xmlns="http://www.w3.org/2000/svg" xmlns:xlink="http://www.w3.org/1999/xlink" x="0px" y="0px"
	 viewBox="0 0 1190.55 406.83" style="enable-background:new 0 0 1190.55 406.83;" xml:space="preserve">
<style type="text/css">
	.st0{fill:#040000;}
</style>
<g id="レイヤー_2">
	<g>
		<g>
			<path class="st0" d="M129.42,32.06C79.58,33.83,41.27,50.1,32.2,71.71c-6.24,14.86-3.39,27.76-3.39,27.76
				c0.67,3.02,3.41,15.46,13.23,21.74c8.94,5.72,17.55,2.25,40.08-1.24c31.29-4.85,47.07-7.12,54.54,0
				c11.26,10.72,2.69,34.99,2.31,36.03c-11.41,31.19-51.44,37.52-54.17,37.91c28.49-0.88,56.93-0.32,57.95,5.84
				c0.34,2.05-1.64,5.68-10.31,9.29c-18.15,7.56-52.19,18.15-55.21,73.36s5.29,60.51,5.29,60.51
				c-1.09-47.36,11.38-66.61,24.04-75.08c18.5-12.39,41.49-4.55,55.94-23.85c2.77-3.7,9.79-14.49,7.82-27.8
				c-1.53-10.36-7.77-17.19-10.42-20.03c-7.97-8.51-17.28-11.39-21.28-12.38c5.45-2.31,26.05-11.82,36.92-35.24
				c5.83-12.56,14.17-40.59,1.43-53.68c-20.62-21.18-81.09,12.43-94.87-7.27c-4.3-6.15-3.64-12.89-3.64-12.89
				c0.75-7.61,6.76-12.76,11.9-16.86C98.59,51.28,111.37,42.01,129.42,32.06z"/>
			<path class="st0" d="M10.5,107.07c0,0,24.07,40.81,29.3,77.43s12.56,163.23,12.56,163.23l-22.5,40.81l27.21-37.67l3.14-108.82
				c2.12-3.33,5.22-8.25,8.91-14.24c7.49-12.15,14.84-24.09,18.3-30.75c8.79-16.95,18.36-49.86,6.28-60.69
				c-9.51-8.53-23.85,4.36-46.56-1.57C29.81,130.28,17.96,117.52,10.5,107.07z"/>
			<path class="st0" d="M167.68,63.73c15.56,31.31,30.19,38.97,40.77,40.08c16.16,1.7,21.9-11.98,50.01-17.95
				c6.99-1.49,28.23-5.75,51.07,1.7c25.39,8.29,29.3,23.4,44.46,23.21c10.12-0.13,24.31-7.07,41.22-38.53
				c-7.37,2.48-19.62,5.73-34.61,5.11c-37.04-1.54-46.34-24.87-78.3-24.97c-23.21-0.07-25.73,12.19-56.74,16.46
				C201.42,72.15,180.88,67.76,167.68,63.73z"/>
			<path class="st0" d="M188.11,125.58c0.35-11.49,28.34-23.65,40.17-15.21c13.06,9.32,2.25,40.82-0.45,48.69
				c-2.08,6.07-6.35,18.06-17.16,27.16c-3.06,2.58-6.38,4.7-9.52,6.71c-8.55,5.47-16.11,9.07-21.35,11.32
				c4.46-2.92,15.81-11.18,22.52-26.82c6.72-15.69,4.85-29.65,3.88-34.89C201.86,140.58,187.86,133.82,188.11,125.58z"/>
			<path class="st0" d="M366.6,130.62c-0.35-11.49-28.34-23.65-40.17-15.21c-13.06,9.32-2.25,40.82,0.45,48.69
				c2.08,6.07,6.35,18.06,17.16,27.16c3.06,2.58,6.38,4.7,9.52,6.71c8.55,5.47,16.11,9.07,21.35,11.32
				c-4.46-2.92-15.81-11.18-22.52-26.82c-6.72-15.69-4.85-29.65-3.88-34.89C352.84,145.62,366.85,138.86,366.6,130.62z"/>
			<path class="st0" d="M176.8,231.74c19.27-37.14,58.49-59.47,99.48-56.74c37.95,2.53,71.72,26.16,87.75,61.28
				c-5.43-5.52-13.65-11.98-24.59-13.62c-11.99-1.79-16.16,3.69-24.59,0.76c-12.73-4.42-9.19-20.12-23.07-29.5
				c-10.12-6.84-25.85-7.85-36.69-1.89c-16.16,8.89-14.59,29.55-26.1,31.02c-8.53,1.09-12.15-9.28-23.07-10.21
				C194.59,211.86,184.27,221.98,176.8,231.74z"/>
			<path class="st0" d="M213.89,130.63c0.03-0.45,5.63-0.33,16.11-0.81c6.27-0.29,9.75-0.44,12.77-0.87
				c1.32-0.19,14.93-2.27,22.27-9.6c7.08-7.07,5.9-21.19,3.25-49.16c-2.3-24.31-5.19-29.3-6.71-31.62
				c-8.84-13.56-23.69-17.3-22.71-20.36c0.54-1.69,5.68-2.5,24.11,0.5c0.85-0.85,6.05-5.84,14.06-5.52
				c7.08,0.28,11.54,4.51,12.56,5.52c8.37,0,16.74,0,25.11,0c0.05,0,0.08,0,0.08,0c0,0.03-1.64,0.21-1.69,0.22
				c-9.25,1.06-17.98,20.6-17.98,20.6c-4.73,10.58-6.28,19.49-6.71,22.04c-5.13,30.65-8.37,51.16,2.4,60.6
				c2.89,2.54,9.33,3.78,22.15,6.44c9.17,1.91,16.96,2.75,22.5,3.15c-1.38,0.24-3.61,0.61-6.34,1.06c-25.92,4.23-31,3.97-36,8.1
				c-2.77,2.29-6.71,6.9-8.12,16.82c-0.77,61.27-1.55,122.54-2.32,183.81l-37.11,37.69l32.47-40.59
				c-5.14-92.66-9.11-160.37-9.89-182.21c-0.14-3.98-0.41-11.31-5.5-16.31c-3.93-3.87-8.73-4.36-36.36-7.6
				C219.27,131.71,213.87,131.07,213.89,130.63z"/>
			<path class="st0" d="M194.55,232.9c5.35,2.99,13.23,6.35,22.85,6.48c19.66,0.27,30.64-13.17,41.51-7.35
				c6.8,3.64,8.35,12.02,8.46,12.69c1.18,6.93-2,13.61-18.19,31.66c-14.59,16.27-23.64,26.36-40.87,39.12
				c-10.74,7.95-17.81,11.86-26.69,17.28c-15.57,9.5-37.33,23.99-62.86,45.23c4.38-6.19,10.87-15.15,19.06-25.76
				c18.76-24.29,28.82-34.33,25.51-41.51c-1.1-2.4-4.09-5.33-12.97-6.49c4.76-3.6,9.51-7.21,14.27-10.81
				c9.44-0.21,28.26-1.92,48-13.41c14.12-8.21,23.28-18.27,28.54-25.08c-3.89,1.3-7.78,2.59-11.68,3.89
				c-3.07,0.03-12.5-0.26-21.62-6.92C198.48,245.06,195.39,235.81,194.55,232.9z"/>
			<path class="st0" d="M360.7,232.9c-5.35,2.99-13.23,6.35-22.85,6.48c-19.66,0.27-30.64-13.17-41.51-7.35
				c-6.8,3.64-8.35,12.02-8.46,12.69c-1.18,6.93,2,13.61,18.19,31.66c14.59,16.27,23.64,26.36,40.87,39.12
				c10.74,7.95,17.81,11.86,26.69,17.28c15.57,9.5,37.33,23.99,62.86,45.23c-4.38-6.19-10.87-15.15-19.06-25.76
				c-18.76-24.29-28.82-34.33-25.51-41.51c1.1-2.4,4.09-5.33,12.97-6.49c-4.76-3.6-9.51-7.21-14.27-10.81
				c-9.44-0.21-28.26-1.92-48-13.41c-14.12-8.21-23.28-18.27-28.54-25.08c3.89,1.3,7.78,2.59,11.68,3.89
				c3.07,0.03,12.5-0.26,21.62-6.92C356.77,245.06,359.86,235.81,360.7,232.9z"/>
		</g>
		<g>
			<path class="st0" d="M467.59,26.85c-25.34-0.43-48.14,11.2-58.8,30.91c-9.65,17.84-10.74,44.85,2.04,55.14
				c12.94,10.42,33.94-1.28,38.97,7.36c3.67,6.31-5.51,16.03-12.28,29.15c-7.04,13.64-13.15,34.17-9.5,64.69
				c5.71-45.79,21.83-67.73,36.2-79.28c8.46-6.81,20.92-13.71,24.64-28.29c2.87-11.24,0.65-27.41-9.13-33.77
				c-16.09-10.46-43.46,11.63-49.74,3.65c-3.08-3.91,1.27-12.07,4.56-18.25C443.5,41.35,457.8,31.87,467.59,26.85z"/>
			<path class="st0" d="M466.49,45.36c5.35,5.54,28.36,28.1,62.98,28.29c14.69,0.08,26.55-3.89,34.23-7.3
				c14.93-6.94,27.43-9.44,35.59-10.5c65.95-8.52,115.67,43.01,151.51,25.1c3.28-1.64,12.71-6.99,25.56-6.85
				c3.95,0.05,19.24,0.22,25.56,9.13c10.33,14.56-4.92,50.23-28.75,60.69c-13.23,5.81-23.54,1.41-28.75,9.13
				c-7.59,11.25,6.87,31.62,5.79,32.14c-1.23,0.59-22.52-24.46-14.91-42.18c6.75-15.73,32.56-17.05,31.94-20.54
				c-0.75-4.3-38.38,6.33-80.32-5.93c-21.47-6.28-20.2-11.58-40.61-15.97c-33.34-7.18-62.63,1.38-67.08,2.74
				c-27.68,8.43-33.36,20.47-53.85,18.25c-4.97-0.54-21.29-2.3-28.29-13.69c-6.35-10.33-0.12-20.59-7.76-32.4
				c-4.11-6.35-10.1-9.87-14.6-11.86L466.49,45.36z"/>
			<path class="st0" d="M492.06,133.56c-25.97,8.75-39.29,25.74-36.33,36.32c2,7.13,11.79,12.71,20.42,13.61
				c8.6,0.9,10.95-3.38,22.52-6.28c18.56-4.67,36.04,0.43,41.11,2.09c14.53,4.77,17.97,11.19,25.87,9.04
				c7.57-2.07,13.04-10.33,13.93-17.41c1.62-12.92-11.2-28.32-32.99-34.3c8.95,13.38,9.24,18.27,7.59,20.16
				c-3.71,4.25-16.45-7.56-37.18-7.33c-18.04,0.2-28.6,9.38-32.2,5.24C483.09,152.73,482.94,147.75,492.06,133.56z"/>
			<path class="st0" d="M435.14,199.16c22.95,5.46,40.3,4.03,51.97,1.66c13.5-2.73,20.76-6.98,35.34-6.24
				c13.83,0.71,20.23,5.2,31.89,8.62c12.36,3.63,30.58,6.04,55.61,0c-6.77,5.53-13.28,8.85-18.9,10.93
				c-6.48,2.39-8.51,1.98-14.55,4.57c-11.63,4.99-11.46,9.78-17.88,11.64c-13.56,3.93-21.27-15.48-37.42-13.72
				c-13.18,1.44-15.47,15.18-26.05,13.62c-8.89-1.31-10.17-11.45-25.09-16.53c-4.63-1.58-5.42-0.92-11.23-2.49
				C448.04,208.27,440.14,203.08,435.14,199.16z"/>
			<path class="st0" d="M469.19,225.54c-2.5,4.72-2.15,7.11-1.32,8.41c2.51,3.96,11.46,1.2,30.05-0.01
				c19.85-1.29,22.91,0.99,24.26,2.31c5.37,5.27,6.16,17.53-0.97,25.14c-5.49,5.87-14.46,7.66-22.35,4.32
				c-9.63,7.97-28.16,25.7-37.08,54.38c-3.65,11.73-4.79,22.39-4.94,30.9c0,0-11.12-0.62-19.78,7.42s12.36-15.45,12.36-15.45
				c1.4-23.64,7.61-57.04,30.4-86.68c2.87-3.74,5.84-7.19,8.86-10.4c-13.97,3.76-24.82-1.33-26.28-7.36
				C460.98,232.69,468.38,226.23,469.19,225.54z"/>
			<path class="st0" d="M614.36,114.33c-10.48,26.64-8.9,35.69-5.02,38.74c8.86,6.96,28.29-18.64,56.64-14.04
				c18.76,3.05,29.44,17.37,39.05,12.02c5.36-2.98,7-10.19,7.6-15.2l-5.74-12.2c1.73,1.02,18.94,11.51,20.09,30.85
				c0.83,13.99-6.87,30.5-18.94,33.72c-5.32,1.42-10.02-0.13-16.21-2.16c-14.56-4.79-16.94-11.37-25.1-14.74
				c-21.1-8.71-38.79,21.49-62.42,13.3c-12.37-4.29-18.76-16.45-19.45-17.81c-1.07-2.11-5.55-11.44-3.51-22.36
				C584.06,130.01,597.16,118.1,614.36,114.33z"/>
			<path class="st0" d="M649.13,122.35c6.01,0.93,12.82,1.64,20.32,1.87c8.19,0.24,15.61-0.14,22.1-0.82
				c-2.93,2.75-5.85,5.51-8.78,8.26c-3.05,17.71-5.41,37.35-6.42,58.7c-2.04,43.32,2.09,81.27,7.87,111.9
				c0.69,0.08,12.35,1.56,14.61,8.8c0.32,1.02,1.29,4.84-5.71,14.47c-6.22,8.56-14.37,19.79-29.56,22.96
				c-3.55,0.74-13.21,2.76-22.71-1.79c-17.76-8.51-14.79-30.35-33.3-53.27c-8.62-10.68-18.29-17.13-24.68-20.76
				c-3.75,4.18-7.5,8.36-11.26,12.54c2.84-6.53,5.68-13.06,8.51-19.59c40.1,14.88,54.21,26.75,59.15,35.25
				c1.35,2.33,6.45,12.05,16.06,14.49c3.4,0.86,6.44,0.58,8.45,0.21c1.83-38.93,1.95-81-0.57-125.76c-1.14-20.34-2.76-40-4.75-58.96
				C655.36,128.04,652.25,125.19,649.13,122.35z"/>
			<path class="st0" d="M627.2,197.66c-0.85,12.5-3.21,22.27-5.27,28.98c-2.05,6.66-3.39,8.95-5.27,10.87
				c-7.91,8.06-21.68,5.81-21.74,7.25c-0.05,1.39,13.12-0.46,21.74,6.92c3.48,2.97,5.73,7.04,9.88,27.67
				c1.52,7.55,3.33,17.5,4.94,29.31c1.11-12.65,1.67-22.76,1.98-29.31c0.8-17.39,0.41-23.18,4.94-27.67
				c7.01-6.93,19.76-4.74,19.76-6.26c0-1.54-13.1,0.07-20.62-7.9c-1.81-1.92-3.16-4.24-5.4-12.52
				C630.4,218.55,628.34,209.29,627.2,197.66z"/>
			<path class="st0" d="M525.33,228.8c9.71,1.82,23.36,6.05,32.35,17.42c22.08,27.92-8.13,68.39,13.83,95.54
				c10.09,12.48,25.65,15.28,48.19,19.34c13.68,2.46,39.11,7.05,64.91-6.23c8.76-4.51,21.69-11.16,28.85-25.24
				c10.29-20.24-4.12-32.48,4.92-61.31c2.93-9.35,7.63-23.82,20.94-35.38c19.32-16.78,43.14-16.16,49.76-15.76
				c-5.74,1.87-14.15,5.63-21.2,13.44c-16.1,17.82-12.26,42.5-11.47,47.54c2.56,16.47,9.06,16.73,9.18,27.21
				c0.32,27.01-43.52,48.35-54.47,53.64c-42.65,20.61-82.64,16-96.01,13.89c-12.92-2.04-40.12-6.68-65.73-27.16
				c-12.81-10.24-32.92-26.15-31.52-45.62c1.22-16.92,17.89-23.57,18.25-43.13C536.33,245.28,530.58,235.5,525.33,228.8z"/>
		</g>
		<g>
			<path class="st0" d="M877.53,323.77c2.96-2.2,11.4-7.85,23.19-7.57c15.67,0.36,25.56,10.89,27.56,13.11
				c-0.16,7.52-2.17,10.07-3.82,11.07c-5.54,3.37-11.98-7.63-24.28-7.57c-10.43,0.05-15.82,8.01-20.19,4.95
				C876.92,335.61,876.78,329.74,877.53,323.77z"/>
			<path class="st0" d="M867.4,58.32c11.16-29.79,28.66-47.87,42.15-45.65c5.15,0.85,11.75,4.99,14.34,11.22
				c4.88,11.75-5.12,27.46-3.74,28.06c0.46,0.2,1.36-1.62,3.08-3.43c5.99-6.31,15.66-5.95,16.25-5.92
				c7.65,0.4,10.46,6.18,19.33,12.47c5.33,3.78,13.76,8.66,26.19,11.85c-9.56,3.18-22.14,6.37-37.12,7.62
				c-12.49,1.04-23.47,0.48-32.33-0.59c-0.1,6.49-0.21,12.98-0.31,19.48c4.08-0.24,10.39-0.2,17.67,1.65
				c14.36,3.65,19.23,11,28.51,13.9c18.25,5.71,34.84-13.78,37.93-10.26c3.48,3.98-21.6,22.27-24.66,49.37
				c-1.72,15.27,4.05,28.92,10.31,39.17l-21.2,15.59c-0.8-0.89-1.59-1.79-2.39-2.68c5.97-4.48,11.94-8.95,17.91-13.43
				c-4.8-1.71-11.68-4.72-18.85-10.13c-7.76-5.85-14.66-11.05-15.79-19.56c-1.05-7.9,3.42-14.57,5.89-17.67
				c-8.02-5.11-26.96-15.67-53.25-16.26c-22.37-0.5-39.39,6.45-47.83,10.6c8.38,6.05,9.73,11.46,9.9,14.37
				c0.28,4.93-2.41,10.13-22.16,26.7c-7.07,5.93-15.07,12.27-24.01,18.78c-1.18-0.24-2.36-0.47-3.53-0.71
				c6.83-5.65,13.67-11.31,20.5-16.96c1.05-7.57,1.66-18.47-1.18-30.86c-6.45-28.15-26.58-51.2-24.19-48.8
				c10.33,10.41,18.77,12.4,24.32,12.47c14.5,0.19,21.23-12.58,40.87-16.44c9.52-1.87,17.71-0.8,22.72,0.23
				c1.45-4.79,3.23-11.63,4.37-20.02c1.39-10.18,2.03-15.33-0.47-18.14C892.33,49.5,880.45,51.53,867.4,58.32z"/>
			<path class="st0" d="M857.84,139.12c3.71,2.42,9.41,5.4,16.7,6.28c10.97,1.33,13.4-3.58,25.32-3.59
				c12.82-0.01,15.72,5.66,28.55,4.85c6.82-0.43,12.24-2.43,15.62-3.95c-2.52,6.7-4.93,12.15-6.82,16.16
				c-2.08,4.42-3.21,6.41-5.57,7.54c-4.35,2.08-9.48-0.44-10.77-1.08c-4.6-2.26-4.69-4.79-8.26-7.54c-6.2-4.78-16.75-5.5-23.7-1.62
				c-6.41,3.58-6,8.97-11.85,10.06c-4.13,0.77-8.8-1.09-11.31-4.13c-1.83-2.21-1.94-4.34-2.69-7.9
				C862.26,150.47,860.81,145.27,857.84,139.12z"/>
			<path class="st0" d="M856.46,174.36c4.32-0.28,10.6-0.38,18.08,0.62c10.4,1.38,17.65,2.35,20.95,7.75
				c2.46,4.02,2.33,9.85,0.14,14.24c-4.82,9.65-17.24,7.57-31.93,16.43c-5.56,3.35-12.52,8.92-18.96,18.68
				c8.43-18.37,15.95-29.77,21.64-37.07c1.78-2.28,5.14-6.43,3.9-10.11c-1.96-5.79-14.04-6.45-18.08-6.56
				C853.62,177.02,855.04,175.69,856.46,174.36z"/>
			<path class="st0" d="M949.97,174.36c-4.32-0.28-10.6-0.38-18.08,0.62c-10.4,1.38-17.65,2.35-20.95,7.75
				c-2.46,4.02-2.33,9.85-0.14,14.24c4.82,9.65,17.24,7.57,31.93,16.43c5.56,3.35,12.52,8.92,18.96,18.68
				c-8.43-18.37-15.95-29.77-21.64-37.07c-1.78-2.28-5.14-6.43-3.9-10.11c1.96-5.79,14.04-6.45,18.08-6.56
				C952.81,177.02,951.39,175.69,949.97,174.36z"/>
			<path class="st0" d="M903.96,196.13c0,0-4.64,11.89-22.61,22.9c-12.15,7.45-11.18,7.76-17.38,13.56
				c-19.63,18.38-28.87,46.82-28.7,61.07c0.02,1.32,0.14,4.75-1.03,9.09c-1.91,7.05-6.08,12.23-9.72,15.73l14.5-15.37
				c0.41-3.43,0.81-6.85,1.22-10.28c4.02-14.1,10.47-22.15,15.49-26.85c9.75-9.13,18.09-9.36,29.74-19
				c9.14-7.56,14.52-16.11,17.55-21.89c6.29,13.22,13.87,20.86,19.62,25.4c10.16,8.02,21.89,12.08,34.38,24.49
				c1.34,1.33,4.04,4.1,6.92,8.14c4.01,5.61,8.13,11.38,8.67,18.38c0.83,10.78-7.26,19.14-9.51,21.32l15.37-20.01
				c-3.09-10.13-11.3-34.5-26.96-55.67c-7.25-9.79-11.73-15.85-20.03-21.89c-5.82-4.23-10.07-5.96-15.63-11.45
				C909.53,207.57,905.98,200.86,903.96,196.13z"/>
			<path class="st0" d="M864.48,251.77c11.43,1.79,24.53,3.15,39.03,3.5c13.74,0.32,26.26-0.33,37.28-1.46
				c2.09,6.47,1.37,10.85,0.29,13.69c-1.39,3.63-3.48,5.01-6.7,9.9c-2.87,4.36-4.55,8.35-5.53,11.07
				c-3.17-14.05-7.61-17.8-11.07-18.64c-4.76-1.15-7.14,3.33-15.15,3.5c-8.38,0.17-11.01-4.64-16.6-3.79
				c-4.01,0.61-9.25,4.09-14.27,17.19c-0.67-2.45-1.88-6.1-4.08-10.19c-2.96-5.51-5.1-6.93-6.12-10.49
				C860.72,263.08,860.62,258.51,864.48,251.77z"/>
			<path class="st0" d="M859.53,280.9c20.11,34.19,22.8,66.71,8.45,80.1c-2.83,2.64-7.37,5.51-14.86,6.7
				c15.77,4.22,24.06-0.45,26.51-2.04c19.85-12.88,9.44-52.64,7.28-60.88c-0.94-3.6-2.38-7.95-5.83-12.23
				C874.12,283.89,863.9,281.6,859.53,280.9z"/>
			<path class="st0" d="M946.91,280.9c-20.11,34.19-22.8,66.71-8.45,80.1c2.83,2.64,7.37,5.51,14.86,6.7
				c-15.77,4.22-24.06-0.45-26.51-2.04c-19.85-12.88-9.44-52.64-7.28-60.88c0.94-3.6,2.38-7.95,5.83-12.23
				C932.31,283.89,942.53,281.6,946.91,280.9z"/>
			<path class="st0" d="M875.26,292.84c3.16-2.2,12.17-7.85,24.76-7.57c16.73,0.36,27.29,10.89,29.42,13.11
				c-0.17,7.52-2.32,10.07-4.08,11.07c-5.92,3.37-12.79-7.63-25.92-7.57c-11.14,0.05-16.9,8.01-21.55,4.95
				C874.61,304.68,874.46,298.81,875.26,292.84z"/>
			<path class="st0" d="M877.53,323.77c2.96-2.2,11.4-7.85,23.19-7.57c15.67,0.36,25.56,10.89,27.56,13.11
				c-0.16,7.52-2.17,10.07-3.82,11.07c-5.54,3.37-11.98-7.63-24.28-7.57c-10.43,0.05-15.82,8.01-20.19,4.95
				C876.92,335.61,876.78,329.74,877.53,323.77z"/>
			<path class="st0" d="M880.09,352.81c1.91-1.62,9.47-7.64,20.73-7.51c12.63,0.15,20.59,7.94,22.13,9.5
				c-0.55,1.24-1.41,3.64-1.19,6.68c0.36,4.89,3.27,8.02,4.16,8.91c-1.44,0-2.87,0-4.31,0c-0.91-1.09-8.15-9.48-20.05-9.21
				c-10.5,0.24-16.96,7.05-18.08,8.28c-1.5,0.01-2.99,0.02-4.49,0.04c0.49-0.49,4.97-5.08,3.86-11.14
				C882.36,355.68,880.96,353.79,880.09,352.81z"/>
			<path class="st0" d="M1000.29,69.03c7.29,16.72,15.64,21.7,21.41,23.4c18.79,5.55,32.19-17.19,65.23-16.43
				c11.52,0.27,19.81,3.26,22.9,4.48c11.42,4.51,19.11,11.41,23.4,15.93c2.57-1.27,13.22-6.23,20.91-1.49
				c8.12,5,8.01,17.76,7.97,22.9c-0.32,36.26-38.05,57.2-74.69,112.53c-10.32,15.58-17.35,29.05-21.41,37.34
				c-0.35,7.6,0.13,19.48,5.48,32.37c8.58,20.68,29.41,43.29,43.82,38.84c4.71-1.46,7.38-5.37,8.46-6.97
				c7.85-11.53-1.55-23.29,0.64-40.06c1.31-10.03,6.41-17.08,17.29-30.65c7.4-9.23,19.63-22.41,38.34-34.86
				c-25.65,36.21-28.1,62.58-25.39,80.17c3.78,24.57,12.36,40.1,3.37,57.97c-7.55,15.01-25.58,25.26-40.22,24.68
				c-27.91-1.1-56.89-42.05-62.24-104.07c-6.02,13.43-35.87,78.82-61.25,89.13c-2.56,1.04-8.82,3.58-13.62,0.82
				c-6.27-3.61-7.22-14.63-5.8-29.2c3.33-34.25,18.57-76.35,28.88-102.08c-5.1,20.38-18.1,76.3-4.98,82.16
				c11.97,5.34,48.16-29.82,49.79-67.72c0.34-7.8-1.93-16.49-6.47-33.86c-7.38-28.24-18.01-49.68-25.39-62.74
				c-3.73-6.59-7.1-11.87-9.46-15.44c44.39,0.68,55.65,6.39,56.76,11.95c0.86,4.27-4.88,6.11-10.46,15.93
				c-10.37,18.25-6.03,39.01-3.98,48.8c2.82,13.48,5.68,27.19,12.45,28.88c8.57,2.14,24.79-14.67,57.76-89.63
				c1.04-4.33,2.43-12.96-1-22.41c-5-13.76-18.08-23.38-30.37-25.39c-24.12-3.95-36.11,22.87-53.78,19.92
				C1023.12,132.33,1010.17,117.88,1000.29,69.03z"/>
		</g>
	</g>
</g>
<g id="レイヤー_1">
</g>
</svg>
