<?xml version="1.0" encoding="utf-8"?>
<!-- Generator: Adobe Illustrator 27.2.0, SVG Export Plug-In . SVG Version: 6.00 Build 0)  -->
<svg version="1.1" id="レイヤー_1" xmlns="http://www.w3.org/2000/svg" xmlns:xlink="http://www.w3.org/1999/xlink" x="0px"
	 y="0px" viewBox="0 0 595.3 841.9" style="enable-background:new 0 0 595.3 841.9;" xml:space="preserve">
<style type="text/css">
	.st0{fill:#EA6127;}
	.st1{fill:#231815;}
	.st2{opacity:0.7;}
	.st3{fill:#42AF39;}
</style>
<g>
	<path class="st0" d="M492,491.4c-23.4-7.1-23.9-42.5-47.4-47.9c-12-2.7-23.4,3.8-32.7,10.3c-1.1,3.3-2.2,6.5-3.3,9.8
		c27.2,20.7,36.5,40.8,39.2,55.5c3.3,18.5-2.7,31.6,7.1,45.2c13.6,19.1,42.5,15.8,41.9,19.6c0,5.4-47.9,18.5-67.5-2.2
		c-16.9-18,0.5-49-16.9-64.8c-9.8-8.7-25-8.7-36.5-6.5c-2.2,1.6-4.4,3.3-6,5.4c13.1,31.6,11.4,53.3,6.5,67.5
		c-6.5,18-18,26.1-16.3,42.5c2.2,23.4,28.8,34.8,26.7,38.1c-2.7,4.4-51.2-7.6-57.2-35.4c-5.4-23.9,25-41.9,17.4-64.8
		c-4.4-13.1-18.5-20.7-29.9-24.5c-1.1,0-2.2,0.5-3.3,0.5c-4.4,34.3-16.9,52.3-28.3,62c-14.7,12.5-28.3,13.6-35.4,28.8
		c-9.8,21.2,7.6,44.6,3.8,46.3c-4.9,2.7-40.3-32.1-32.1-59.3c7.1-23.4,42.5-23.9,47.9-47.4c3.3-13.6-6-27.2-13.6-36.5
		c-1.1-0.5-1.6-0.5-2.7-1.1c-21.2,27.8-40.8,37-55.5,39.7c-18.5,3.3-31.6-2.7-45.2,7.1c-19.1,13.6-15.8,42.5-19.6,41.9
		c-5.4,0-18.5-47.9,2.2-67.5c18-16.9,49,0.5,64.8-16.9c9.3-9.8,8.7-25.6,6.5-37.6c-1.1-1.1-2.2-2.7-3.3-3.8
		c-31.6,13.1-52.8,10.9-66.9,6c-18-6.5-26.1-18-42.5-16.3c-23.4,2.2-34.8,28.8-38.1,26.7c-4.4-2.7,7.6-51.2,35.4-57.2
		c23.9-5.4,41.9,25,64.8,17.4c12.5-3.8,19.6-16.9,23.9-27.8c-0.5-2.2-0.5-4.4-1.1-6.5c-33.2-4.4-51.2-16.9-60.4-28.3
		c-12.5-14.7-13.6-28.3-28.8-35.4c-21.2-9.8-44.6,7.6-46.3,3.8c-2.7-4.9,32.1-40.3,59.3-32.1c23.4,7.1,23.9,42.5,47.4,47.9
		c12.5,2.7,25-4.4,34.3-12c0.5-2.2,1.6-4.4,2.2-6c-26.7-20.7-35.4-40.3-38.1-54.4c-3.3-18.5,2.7-31.6-7.1-45.2
		c-13.6-19.1-42.5-15.8-41.9-19.6c0-5.4,47.9-18.5,67.5,2.2c16.9,18-0.5,49,16.9,64.8c9.8,8.7,23.9,8.7,35.4,6.5
		c1.6-1.6,3.8-3.3,6-4.9c-12.5-31-10.3-52.3-5.4-65.9c6.5-18,18-26.1,16.3-42.5c-2.2-23.4-28.8-34.8-26.7-38.1
		c2.7-4.4,51.2,7.6,57.2,35.4c5.4,23.9-25,41.9-17.4,64.8c3.8,12.5,16.9,19.6,27.8,23.9c0.5,0,1.6,0,2.7-0.5
		c4.4-34.8,16.9-52.8,28.3-62.6c14.7-12.5,28.3-13.6,35.4-28.8c9.8-21.2-7.6-44.6-3.8-46.3c4.9-2.7,40.3,32.1,32.1,59.3
		c-7.1,23.4-42.5,23.9-47.9,47.4c-2.7,13.1,5.4,26.1,13.1,35.4c0.5,0,1.1,0,1.1,0.5c21.2-28.3,41.4-37.6,56.1-40.3
		c18.5-3.3,31.6,2.7,45.2-7.1c19.1-13.6,15.8-42.5,19.6-41.9c5.4,0,18.5,47.9-2.2,67.5c-18,16.9-49-0.5-64.8,16.9
		c-8.7,9.3-8.7,23.9-7.1,35.4c1.6,1.6,2.7,2.7,4.4,4.4c31.6-13.1,53.3-11.4,67.5-6c18,6.5,26.1,18,42.5,16.3
		c23.4-2.2,34.8-28.8,38.1-26.7c4.4,2.7-7.6,51.2-35.4,57.2c-23.9,5.4-41.9-25-64.8-17.4c-11.4,3.3-18.5,14.7-22.3,24.5
		c1.1,3.3,1.6,6,2.2,9.3c33.7,4.4,51.7,16.9,61.5,28.3c12.5,14.7,13.6,28.3,28.8,35.4c21.2,9.8,44.6-7.6,46.3-3.8
		C554,464.2,519.2,499.6,492,491.4z"/>
	<path class="st1" d="M288.4,498.5c-9.8-3.3-14.2-4.9-15.8-6c2.2-0.5,6-1.1,8.2-1.6c6.5-1.1,10.9-2.2,10.9-5.4c0-3.8-4.4-4.9-12.5-6
		c-2.2-0.5-4.9-1.1-7.1-1.1c4.9-1.6,14.2-3.8,19.1-4.9c12.5-2.7,15.8-3.3,15.2-7.1c-0.5-3.3-3.8-3.3-9.8-2.7
		c-6.5,0.5-20.7,1.1-22.9-3.3c-1.1-2.2,0.5-5.4,4.4-10.9c4.4-6,9.8-14.7,10.9-27.2c1.6-15.2-3.3-34.8-18-44.6
		c-9.8-6.5-20.1-6.5-23.4-6.5l0,0c-13.1,0-23.4,6-27.8,9.3l3.8,4.9c4.4-3.3,12.5-8.2,24.5-8.2l0,0c2.7,0,12,0,20.1,5.4
		c12.5,8.7,16.9,25.6,15.2,39.2c-1.1,10.9-6,18.5-9.8,24.5c-3.8,6-7.1,11.4-4.4,16.9c2.2,4.4,7.1,6,12.5,6.5
		c-12,2.7-16.9,5.4-16.9,9.3c0,4.4,5.4,5.4,14.2,7.1h0.5c-6.5,1.1-12.5,2.7-13.1,6.5c-0.5,3.8,2.7,7.1,21.2,13.1L288.4,498.5z"/>
	<path class="st1" d="M342.8,377.7c13.6-1.1,23.9,6,27.8,8.7l3.8-4.9c-4.4-3.3-15.8-11.4-32.1-10.3c-13.1,1.1-21.8,7.6-26.1,11.4
		l3.8,4.4C323.8,384.2,331.4,378.8,342.8,377.7z"/>
	<path class="st1" d="M243.2,427.8c-7.1,0-12.5-7.1-12.5-15.8s5.4-15.8,12.5-15.8c7.1,0,12.5,7.1,12.5,15.8S250.3,427.8,243.2,427.8
		z M243.2,402.7c-3.3,0-6.5,4.4-6.5,9.8s2.7,9.8,6.5,9.8c3.3,0,6.5-4.4,6.5-9.8S246.5,402.7,243.2,402.7z"/>
	<path class="st1" d="M343.9,427.8c-7.1,0-12.5-7.1-12.5-15.8s5.4-15.8,12.5-15.8s12.5,7.1,12.5,15.8S350.4,427.8,343.9,427.8z
		 M343.9,402.7c-3.3,0-6.5,4.4-6.5,9.8s2.7,9.8,6.5,9.8c3.3,0,6.5-4.4,6.5-9.8S347.2,402.7,343.9,402.7z"/>
	<g class="st2">
		<g>
			<g>
				<path class="st3" d="M36.9,246c-2.7,29.9-4.4,31.6-34.3,34.3c29.9,2.7,31.6,4.4,34.3,34.3c2.7-29.9,4.4-31.6,34.3-34.3
					C41.3,277.5,39.7,275.4,36.9,246z"/>
			</g>
			<path class="st3" d="M39.1,314.5h-4.4c-2.2-28.8-3.8-29.9-32.1-32.1v-4.4c28.8-2.2,29.9-3.8,32.1-32.1h4.4
				c2.2,28.8,3.8,29.9,32.1,32.1v4.4C42.9,284.6,41.8,285.7,39.1,314.5z M20.6,280.2c10.3,2.2,14.7,6.5,16.9,16.9
				c2.2-10.3,6.5-14.7,16.9-16.9c-10.3-2.2-14.7-6.5-16.9-16.9C34.8,273.7,30.9,278.1,20.6,280.2z"/>
		</g>
		<g>
			<g>
				<path class="st3" d="M558.4,246c-2.2,29.9-4.4,31.6-34.3,34.3c29.9,2.7,31.6,4.4,34.3,34.3c2.7-29.9,4.4-31.6,34.3-34.3
					C562.7,277.5,560.5,275.4,558.4,246z"/>
			</g>
			<path class="st3" d="M556.2,314.5c-2.2-28.8-3.8-29.9-32.1-32.1v-4.4c28.8-2.2,29.9-3.8,32.1-32.1h4.4
				c2.2,28.8,3.8,29.9,32.1,32.1v4.4c-28.8,2.2-29.9,3.3-32.1,32.1H556.2z M541.5,280.2c10.3,2.2,14.7,6.5,16.9,16.9
				c2.2-10.3,6.5-14.7,16.9-16.9c-10.3-2.2-14.7-6.5-16.9-16.9C556.2,273.7,551.8,278.1,541.5,280.2z"/>
		</g>
	</g>
	<g>
		<path class="st1" d="M279.1,304.2c0,0,0,0.5,0,1.6c0,1.1,0,1.6,0,1.6s0-0.5,0-1.6C279.1,304.7,279.1,304.2,279.1,304.2z"/>
		<rect x="275.9" y="304.2" class="st0" width="6" height="2.7"/>
	</g>
</g>
</svg>
